# Blender v2.78 (sub 0) OBJ File: ''
# www.blender.org
mtllib puzzleTestCurvo.mtl
o Cube.001_Cube.003
v -4.999000 2.500000 -0.250000
v -4.999000 0.000000 -5.250000
v -4.999000 0.000000 -0.250000
v -4.999000 2.500000 -5.250000
v 0.000000 0.000000 -5.250000
v 0.000000 2.500000 -5.250000
v 0.000000 0.000000 -0.250000
v 0.000000 2.500000 -0.250000
v -14.999999 0.000001 -15.750000
v -14.999999 0.500001 -16.250000
v -15.000000 0.000001 -17.250000
v 21.000000 0.500000 0.750000
v 21.000000 -0.000000 1.750000
v 21.000000 0.500000 0.750000
v 15.000000 0.500001 -16.250000
v 15.000000 0.000001 -15.750000
v 15.000000 0.000001 -17.250000
v 15.000000 0.500001 -15.250000
v -14.999999 0.500001 -15.250000
v -26.750000 -0.000001 18.999996
v 31.750000 0.000001 -24.499996
v -26.750000 0.000001 -24.499996
v 11.000001 -0.000000 10.249999
v 11.000001 0.500000 10.749999
v 11.000001 -0.000001 11.749999
v -15.000000 -0.000001 11.750001
v -15.000000 0.500000 10.750001
v -15.000000 -0.000000 10.250001
v -15.000000 0.500000 9.750001
v -15.500000 -0.000000 10.749999
v -16.000000 0.500000 10.749999
v -17.000000 -0.000000 10.749999
v -17.000000 0.000001 -16.249998
v -16.000000 0.500001 -16.249998
v -15.500001 0.000001 -16.249998
v -15.000001 0.500001 -16.249998
v 15.501963 0.000000 -5.750000
v 15.001963 0.500000 -6.250000
v 15.501963 0.000000 -7.250000
v 19.999998 0.000000 -7.250000
v 19.999998 0.500000 -6.250000
v 20.499998 0.000000 -5.750000
v 19.999998 0.500000 -5.250000
v 15.500000 0.000001 -16.250000
v 16.000002 0.500001 -16.250000
v 17.000000 0.000001 -16.250000
v 17.000000 0.000000 -6.250000
v 16.000000 0.500000 -6.250000
v 15.501967 0.000000 -6.250000
v 15.001967 0.500000 -6.250000
v 10.500000 -0.000000 5.750000
v 11.000001 0.500000 5.750000
v 12.000000 -0.000000 5.750000
v 10.999999 0.500000 9.749999
v 12.000000 -0.000000 9.749999
v 10.499999 -0.000000 9.749999
v 9.999999 0.500000 9.749999
v 16.475531 -0.000000 5.250000
v 15.975531 0.500000 5.750000
v 15.975529 -0.000000 6.749999
v 10.500000 -0.000000 6.749999
v 10.000000 0.500000 5.749999
v 10.499999 -0.000000 5.249999
v 9.999999 0.500000 4.749999
v 15.975531 0.500000 4.750000
v 15.500002 0.000000 0.249999
v 16.000002 0.500000 -0.050001
v 17.000000 0.000000 0.250000
v 16.000000 0.500000 4.750000
v 17.000000 -0.000000 4.749999
v 15.500000 -0.000000 4.750000
v 15.000000 0.500000 4.750000
v 21.000000 0.000000 0.250000
v 16.000000 -0.000000 1.749999
v 16.000002 0.500000 0.750000
v 16.000002 0.000000 0.250000
v 16.000002 0.500000 -0.050000
v 20.499998 0.000000 -6.224203
v 21.000000 0.500000 -6.224203
v 21.999998 0.000000 -6.224203
v 22.000000 0.000000 -0.050000
v 21.000000 0.500000 -0.050000
v 20.500000 0.000000 -0.050000
v 20.000000 0.500000 -0.050000
v -15.000000 2.500000 -10.249998
v -15.000000 0.000001 -15.249998
v -15.000000 0.000000 -10.249998
v -15.000000 2.500001 -15.249998
v -10.000000 0.000001 -15.250000
v -10.000000 2.500001 -15.250000
v -10.000000 0.000000 -10.250000
v -10.000000 2.500000 -10.250000
v 15.975531 0.500001 5.750000
v 31.749996 -0.000001 18.999998
v 11.000001 0.500000 9.749999
v -15.000000 0.500000 10.749999
v 15.001963 0.500000 -5.250000
v 15.000000 0.500001 -16.250000
v 10.000000 0.500000 5.750000
v 15.000002 0.500000 -0.050001
v 21.000000 0.500000 -0.050000
v 19.999998 0.500000 -6.224203
v 16.000000 0.499998 -16.250004
v 16.000002 0.499998 -16.250004
v 16.000000 -0.000002 -17.250004
v 16.000002 -0.000002 -16.250004
v 20.999998 0.500000 -6.250002
v 21.000000 0.500000 -6.224205
v 16.000000 -0.000002 -15.250004
v 20.999998 0.000000 -5.250003
v 21.000000 0.000000 -7.250002
v 17.000000 0.000001 5.749999
v 11.000001 0.000001 10.749999
v -16.000000 -0.000001 11.750001
v 21.000000 0.000000 -6.224205
v 21.000000 -0.000000 0.750000
v 21.000000 0.500000 0.750000
v 22.000000 -0.000000 0.750000
v 20.000000 -0.000000 0.750000
v 15.975531 0.000001 5.750000
v 16.000000 0.500001 5.750000
v 15.000000 0.000001 5.750000
v 11.000001 0.500001 10.749999
v 10.999999 0.500001 10.749999
v 12.000000 0.000001 10.749999
v 9.999998 0.000001 10.749999
v -16.000000 0.500000 10.750001
v -16.000000 -0.000000 10.749999
v -16.000000 0.500000 10.749999
v -16.000000 -0.000000 9.750001
v -16.000000 -0.000003 -17.250004
v -16.000000 -0.000003 -16.250002
v -15.999999 0.499997 -16.250004
v -15.999999 -0.000003 -15.250004
v -16.000000 0.499997 -16.250002
vt 1.0000 0.0000
vt 0.0000 1.0000
vt 0.0000 0.0000
vt 1.0000 0.0000
vt 0.0000 1.0000
vt 0.0000 0.0000
vt 1.0000 0.0000
vt 0.0000 1.0000
vt 0.0000 0.0000
vt 1.0000 0.0000
vt 0.0000 1.0000
vt 0.0000 0.0000
vt 0.0000 1.0000
vt 0.0000 0.0000
vt 0.0000 0.0000
vt 1.0000 1.0000
vt 0.0000 1.0000
vt 0.0000 0.0000
vt 0.0000 0.0000
vt 0.0000 0.0000
vt 1.0000 0.0000
vt 0.0000 1.0000
vt 0.0000 0.0000
vt 1.0000 0.0000
vt 0.0000 1.0000
vt 0.0000 0.0000
vt 0.0000 0.0000
vt 1.0000 1.0000
vt 0.0000 1.0000
vt 1.0000 0.0000
vt 0.0000 0.0538
vt 0.0000 0.0000
vt 0.0000 0.0000
vt 1.0000 1.0000
vt 0.0000 1.0000
vt 1.0000 0.0000
vt 0.0000 1.0000
vt 0.0000 0.0000
vt 1.0000 0.0000
vt 0.0000 1.0000
vt 0.0000 0.0000
vt 1.0000 0.0000
vt 0.0000 1.0000
vt 0.0000 0.0000
vt 0.0000 1.0000
vt 0.0000 0.0000
vt 0.0000 0.0000
vt 1.0000 1.0000
vt 0.0000 1.0000
vt 1.0000 0.0000
vt 0.0000 1.0000
vt 0.0000 0.0000
vt 1.0000 0.0000
vt 0.0000 1.0000
vt 0.0000 0.0000
vt 1.0000 0.0000
vt 0.0000 1.0000
vt 0.0000 0.0000
vt 0.0000 1.0000
vt 0.0000 0.0000
vt 0.0000 0.0000
vt 1.0000 1.0000
vt 0.0000 1.0000
vt 1.0000 0.0000
vt 0.0000 1.0000
vt 0.0000 0.0000
vt 1.0000 0.0000
vt 0.0000 1.0000
vt 0.0000 0.0000
vt 1.0000 0.0000
vt 0.0000 1.0000
vt 0.0000 0.0000
vt 0.0000 1.0000
vt 0.0000 0.0000
vt 0.0000 0.0000
vt 1.0000 1.0000
vt 0.0000 1.0000
vt 1.0000 0.0000
vt 0.0000 1.0000
vt 0.0000 0.0000
vt 1.0000 0.0000
vt 0.0000 1.0000
vt 0.0000 0.0000
vt 1.0000 0.0000
vt 0.0000 1.0000
vt 0.0000 0.0000
vt 0.0000 1.0000
vt 0.0000 0.0000
vt 0.0000 0.0000
vt 1.0000 1.0000
vt 0.0000 1.0000
vt 0.0000 0.0000
vt 1.0000 1.0000
vt 0.0000 1.0000
vt 1.0000 0.0000
vt 0.0000 1.0000
vt 0.0000 0.0000
vt 1.0000 0.0000
vt 0.0000 1.0000
vt 0.0000 0.0000
vt 1.0000 0.0000
vt 0.0000 1.0000
vt 0.0000 0.0000
vt 0.0000 0.0000
vt 1.0000 1.0000
vt 0.0000 1.0000
vt 1.0000 0.0000
vt 0.0000 1.0000
vt 0.0000 0.0000
vt 1.0000 0.0000
vt 0.0000 1.0000
vt 0.0000 0.0000
vt 1.0000 0.0000
vt 0.0000 1.0000
vt 0.0000 0.0000
vt 0.0000 0.0000
vt 1.0000 1.0000
vt 0.0000 1.0000
vt 0.0000 0.0000
vt 1.0000 1.0000
vt 0.0000 1.0000
vt 0.0000 0.0000
vt 1.0000 1.0000
vt 0.0000 1.0000
vt 1.0000 0.0000
vt 0.0000 1.0000
vt 0.0000 0.0000
vt 1.0000 0.0000
vt 0.0000 1.0000
vt 0.0000 0.0000
vt 1.0000 0.0000
vt 0.0000 1.0000
vt 0.0000 0.0000
vt 0.0000 0.0000
vt 1.0000 1.0000
vt 0.0000 1.0000
vt 1.0000 0.0000
vt 0.0000 1.0000
vt 1.0000 0.0000
vt 0.0000 1.0000
vt 0.0000 0.0000
vt 1.0000 0.0000
vt 0.0000 1.0000
vt 0.0000 0.0000
vt 0.0000 1.0000
vt 0.0000 0.0000
vt 0.0000 0.0000
vt 1.0000 1.0000
vt 0.0000 1.0000
vt 1.0000 0.0000
vt 0.0000 1.0000
vt 0.0000 0.0000
vt 1.0000 0.0000
vt 0.0000 1.0000
vt 0.0000 0.0000
vt 1.0000 0.0000
vt 0.0000 1.0000
vt 0.0000 0.0000
vt 0.0000 1.0000
vt 0.0000 0.0000
vt 1.0000 0.0000
vt 0.0000 1.0000
vt 0.0000 0.0000
vt 1.0000 0.0000
vt 0.0000 1.0000
vt 0.0000 0.0000
vt 1.0000 0.0000
vt 0.0000 1.0000
vt 0.0000 0.0000
vt 1.0000 0.0000
vt 0.0000 1.0000
vt 0.0000 0.0000
vt 0.0000 1.0000
vt 0.0000 0.0000
vt 1.0000 1.0000
vt 1.0000 1.0000
vt 1.0000 1.0000
vt 1.0000 1.0000
vt 1.0000 0.0000
vt 0.0000 0.0000
vt 0.0000 0.0000
vt 1.0000 1.0000
vt 1.0000 0.0000
vt 1.0000 0.0538
vt 1.0000 0.0000
vt 1.0000 1.0000
vt 1.0000 1.0000
vt 1.0000 1.0000
vt 1.0000 0.0000
vt 1.0000 1.0000
vt 1.0000 1.0000
vt 1.0000 1.0000
vt 1.0000 0.0000
vt 1.0000 1.0000
vt 1.0000 1.0000
vt 1.0000 1.0000
vt 1.0000 0.0000
vt 1.0000 1.0000
vt 1.0000 1.0000
vt 1.0000 1.0000
vt 1.0000 0.0000
vt 1.0000 1.0000
vt 1.0000 1.0000
vt 1.0000 0.0000
vt 1.0000 1.0000
vt 1.0000 1.0000
vt 1.0000 0.0000
vt 1.0000 1.0000
vt 1.0000 1.0000
vt 1.0000 0.0000
vt 1.0000 1.0000
vt 1.0000 1.0000
vt 1.0000 1.0000
vt 1.0000 0.0000
vt 1.0000 1.0000
vt 1.0000 1.0000
vt 1.0000 1.0000
vt 1.0000 1.0000
vt 1.0000 1.0000
vt 1.0000 1.0000
vt 1.0000 1.0000
vt 0.0000 0.0000
vt 0.0000 0.0000
vt 0.0000 0.0000
vt 0.0000 0.0000
vt 0.0000 0.0000
vt 0.0000 0.0000
vt 0.0000 0.0000
vt 0.0000 0.0000
vt 1.0000 1.0000
vt 0.0000 1.0000
vt 0.0000 1.0000
vt 0.0000 1.0000
vt 0.0000 0.0000
vt 0.0000 0.0000
vt 0.0000 1.0000
vt 0.0000 0.0000
vt 0.0000 0.0000
vt 0.0000 0.0000
vt 0.0000 1.0000
vt 0.0000 0.0000
vt 1.0000 1.0000
vt 0.0000 0.0000
vt 0.0000 0.0000
vt 0.0000 0.0000
vt 0.0000 0.0000
vt 1.0000 1.0000
vt 0.0000 1.0000
vt 0.0000 0.0000
vt 0.0000 0.0000
vt 0.0000 0.0000
vt 0.0000 0.0000
vt 0.0000 1.0000
vt 0.0000 0.0000
vt 0.0000 0.0000
vt 0.0000 0.0000
vt 0.0000 0.0000
vt 0.0000 0.0000
vt 0.0000 0.0000
vt 0.0000 1.0000
vt 0.0000 0.0000
vt 0.0000 0.0000
vt 0.0000 0.0000
vt 0.0000 0.0000
vt 1.0000 1.0000
vt 0.0000 0.0000
vt 0.0000 1.0000
vt 0.0000 0.0000
vt 0.0000 0.0000
vt 0.0000 0.0000
vt 0.0000 0.0000
vt 1.0000 1.0000
vt 0.0000 1.0000
vt 0.0000 0.0000
vt 0.0000 0.0000
vt 0.0000 1.0000
vt 0.0000 1.0000
vt 1.0000 1.0000
vt 0.0000 0.0000
vt 0.0000 0.0000
vt 0.0000 0.0000
vt 1.0000 0.0000
vt 1.0000 1.0000
vt 0.0000 1.0000
vt 1.0000 1.0000
vt 0.0000 1.0000
vt 0.0000 1.0000
vt 1.0000 1.0000
vt 0.0000 1.0000
vt 1.0000 1.0000
vt 0.0000 1.0000
vt 1.0000 0.0000
vt 0.0000 1.0000
vt 1.0000 1.0000
vt 0.0000 0.0000
vt 0.0000 0.0000
vt 1.0000 0.0000
vt 1.0000 1.0000
vt 0.0000 1.0000
vt 0.0000 0.0000
vt 0.0000 0.0000
vn -1.0000 0.0000 0.0000
vn 0.0000 0.0000 -1.0000
vn 1.0000 0.0000 0.0000
vn 0.0000 -0.0000 1.0000
vn 0.0000 1.0000 0.0000
vn 0.0000 0.0000 0.0000
vn 0.0000 -0.7071 0.7071
vn 0.0000 0.8944 0.4472
vn -0.0000 -0.7071 -0.7071
vn -0.4472 0.8944 0.0000
vn 0.7071 -0.7071 -0.0000
vn -0.7071 -0.7071 -0.0000
vn 0.0000 0.8944 -0.4472
vn 0.7791 0.6012 -0.1779
vn 0.7528 0.6501 -0.1027
vn 0.8018 0.5345 -0.2673
vn 0.4472 0.8944 0.0000
vn -0.7071 -0.7071 0.0001
vn 0.7528 0.6501 0.1027
vn 0.7791 0.6012 0.1779
vn 0.8018 0.5345 0.2673
vn 0.0000 -0.5145 -0.8575
vn 0.7071 0.7071 0.0000
vn -0.0000 -0.6427 0.7662
vn -0.0000 -1.0000 -0.0000
vn 0.3287 0.6575 -0.6780
vn 0.7653 0.5757 0.2879
vn 0.8760 0.4314 0.2157
vn 0.4082 0.8165 0.4082
vn -0.4082 0.8165 -0.4082
vn 0.4001 0.8197 0.4099
vn 0.9888 -0.0000 0.1490
vn 0.8046 -0.0000 -0.5938
vn 0.7440 0.2706 -0.6109
vn 0.4170 0.8130 -0.4065
vn 0.4082 0.8165 -0.4082
vn 0.0000 0.7880 -0.6156
vn -1.0000 0.0000 0.0001
vn -0.9701 0.0000 -0.2425
vn -0.9056 -0.0000 0.4241
vn -0.9403 0.0000 -0.3404
vn -0.8599 -0.2705 0.4328
vn -0.4082 -0.8165 -0.4082
vn -0.4082 0.8165 0.4082
vn -0.0000 0.6491 -0.7607
vn 0.0000 0.9701 -0.2425
vn -0.3555 0.6067 -0.7110
vn -0.6468 -0.6468 -0.4042
usemtl Material.001
s 1
f 1/1/1 2/2/1 3/3/1
f 4/4/2 5/5/2 2/6/2
f 6/7/3 7/8/3 5/9/3
f 8/10/4 3/11/4 7/12/4
f 4/4/5 8/13/5 6/14/5
f 9/15/1 10/16/1 11/17/1
f 12/18/6 13/19/4 14/20/6
f 15/21/3 16/22/3 17/23/3
f 18/24/7 9/25/7 16/26/7
f 15/27/5 19/28/5 18/29/5
f 20/30/5 21/31/5 22/32/5
f 23/33/3 24/34/3 25/35/3
f 24/36/8 26/37/8 25/38/8
f 27/39/1 28/40/1 26/41/1
f 29/42/9 23/43/9 28/44/9
f 24/36/5 29/45/5 27/46/5
f 30/47/4 31/48/4 32/49/4
f 31/50/10 33/51/10 32/52/10
f 34/53/2 35/54/2 33/55/2
f 36/56/11 30/57/11 35/58/11
f 31/50/5 36/59/5 34/60/5
f 37/61/12 38/62/12 39/63/12
f 38/64/13 40/65/13 39/66/13
f 41/67/14 42/68/15 40/69/16
f 43/70/7 37/71/7 42/72/7
f 38/64/5 43/73/5 41/74/5
f 44/75/2 45/76/2 46/77/2
f 45/78/17 47/79/17 46/80/17
f 48/81/4 49/82/4 47/83/4
f 50/84/18 44/85/18 49/86/18
f 45/78/5 50/87/5 48/88/5
f 51/89/2 52/90/2 53/91/2
f 53/92/17 54/93/17 55/94/17
f 54/95/4 56/96/4 55/97/4
f 57/98/12 51/99/12 56/100/12
f 52/101/5 57/102/5 54/103/5
f 58/104/19 59/105/20 60/106/21
f 59/107/8 61/108/8 60/109/8
f 62/110/12 63/111/12 61/112/12
f 64/113/9 58/114/9 63/115/9
f 62/116/5 65/117/5 64/118/5
f 66/119/22 67/120/22 68/121/22
f 68/122/17 69/123/17 70/124/17
f 69/125/4 71/126/4 70/127/4
f 72/128/12 66/129/12 71/130/12
f 67/131/5 72/132/5 69/133/5
f 73/134/3 12/135/3 13/136/3
f 12/137/8 74/138/8 13/19/8
f 75/139/1 76/140/1 74/141/1
f 77/142/22 73/143/22 76/144/22
f 12/137/5 77/145/5 75/146/5
f 78/147/2 79/148/2 80/149/2
f 79/150/17 81/151/17 80/152/17
f 82/153/4 83/154/4 81/155/4
f 84/156/12 78/157/12 83/158/12
f 79/150/5 84/159/5 82/160/5
f 85/161/1 86/162/1 87/163/1
f 88/164/2 89/165/2 86/166/2
f 90/167/3 91/168/3 89/169/3
f 92/170/4 87/171/4 91/172/4
f 88/164/5 92/173/5 90/174/5
f 1/1/1 4/175/1 2/2/1
f 4/4/2 6/176/2 5/5/2
f 6/7/3 8/177/3 7/8/3
f 8/10/4 1/178/4 3/11/4
f 4/4/5 1/178/5 8/13/5
f 9/15/1 19/179/1 10/16/1
f 93/180/1 65/181/1 60/109/1
f 15/21/3 18/182/3 16/22/3
f 18/24/7 19/28/7 9/25/7
f 15/27/5 10/183/5 19/28/5
f 20/30/5 94/184/5 21/31/5
f 23/33/3 95/185/3 24/34/3
f 24/36/8 27/186/8 26/37/8
f 27/39/1 29/187/1 28/40/1
f 29/42/9 95/188/9 23/43/9
f 24/36/5 95/188/5 29/45/5
f 30/47/4 96/189/4 31/48/4
f 31/50/10 34/190/10 33/51/10
f 34/53/2 36/191/2 35/54/2
f 36/56/11 96/192/11 30/57/11
f 31/50/5 96/192/5 36/59/5
f 37/61/12 97/193/12 38/62/12
f 38/64/13 41/194/13 40/65/13
f 41/67/14 43/195/23 42/68/15
f 43/70/7 97/196/7 37/71/7
f 38/64/5 97/196/5 43/73/5
f 44/75/2 98/197/2 45/76/2
f 45/78/17 48/198/17 47/79/17
f 48/81/4 50/199/4 49/82/4
f 50/84/18 98/200/18 44/85/18
f 45/78/5 98/200/5 50/87/5
f 51/89/2 99/201/2 52/90/2
f 53/92/17 52/101/17 54/93/17
f 54/95/4 57/202/4 56/96/4
f 57/98/12 99/203/12 51/99/12
f 52/101/5 99/203/5 57/102/5
f 58/104/19 65/204/23 59/105/20
f 59/107/8 62/205/8 61/108/8
f 62/110/12 64/206/12 63/111/12
f 64/113/9 65/117/9 58/114/9
f 62/116/5 59/107/5 65/117/5
f 66/119/22 100/207/22 67/120/22
f 68/122/17 67/131/17 69/123/17
f 69/125/4 72/208/4 71/126/4
f 72/128/12 100/209/12 66/129/12
f 67/131/5 100/209/5 72/132/5
f 73/134/3 101/210/3 12/135/3
f 12/137/8 75/211/8 74/138/8
f 75/139/1 77/212/1 76/140/1
f 77/142/22 101/213/22 73/143/22
f 12/137/5 101/213/5 77/145/5
f 78/147/2 102/214/2 79/148/2
f 79/150/17 82/215/17 81/151/17
f 82/153/4 84/216/4 83/154/4
f 84/156/12 102/217/12 78/157/12
f 79/150/5 102/217/5 84/159/5
f 85/161/1 88/218/1 86/162/1
f 88/164/2 90/219/2 89/165/2
f 90/167/3 92/220/3 91/168/3
f 92/170/4 85/221/4 87/171/4
f 88/164/5 85/221/5 92/173/5
f 98/222/24 103/223/24 104/224/24
f 103/223/1 105/225/1 106/226/1
f 80/152/17 107/227/17 108/228/17
f 44/75/25 109/229/25 16/26/25
f 44/85/2 104/230/2 106/231/2
f 17/23/5 109/232/5 105/225/5
f 40/69/5 110/233/5 111/234/5
f 69/125/17 112/235/17 70/127/17
f 95/188/3 113/236/3 23/43/3
f 28/40/5 114/237/5 26/41/5
f 45/238/26 46/80/26 103/223/26
f 107/227/1 111/234/1 115/239/1
f 102/217/2 115/240/2 78/157/2
f 78/147/25 110/241/25 42/72/25
f 107/242/13 40/65/13 41/194/13
f 41/74/25 108/228/25 102/243/25
f 116/244/2 117/245/2 118/246/2
f 14/247/17 81/151/17 82/215/17
f 101/213/3 116/248/3 73/143/3
f 73/134/25 119/249/25 83/158/25
f 83/154/5 118/246/5 81/155/5
f 120/250/2 121/251/2 112/235/2
f 58/104/25 122/252/25 71/130/25
f 65/117/27 120/253/28 58/114/29
f 71/126/5 112/235/5 70/127/5
f 69/133/25 93/180/25 65/181/25
f 123/254/4 124/255/4 125/256/4
f 56/100/25 113/257/25 126/258/25
f 54/95/17 125/256/17 55/97/17
f 54/103/5 123/254/5 95/259/5
f 55/97/5 126/260/5 125/256/5
f 127/261/3 114/237/3 128/262/3
f 27/46/25 129/263/25 96/264/25
f 127/265/8 26/37/8 27/186/8
f 30/47/25 130/266/25 28/44/25
f 96/192/4 128/267/4 30/57/4
f 131/268/1 132/269/1 133/270/1
f 35/58/5 134/271/5 9/15/5
f 35/54/4 135/272/4 132/273/4
f 36/274/5 133/270/5 135/275/5
f 11/17/25 134/271/25 131/276/25
f 17/277/13 10/183/13 15/278/13
f 124/255/29 25/38/29 125/256/29
f 129/263/10 32/52/10 127/261/10
f 133/270/30 131/268/30 33/55/30
f 14/20/6 117/245/6 101/279/6
f 13/19/29 118/246/29 14/20/29
f 14/20/6 101/279/6 12/18/6
f 65/181/3 59/280/3 60/109/3
f 60/109/31 112/235/31 93/180/31
f 112/235/4 121/251/4 93/180/4
f 98/222/4 15/27/4 103/223/4
f 106/226/4 104/224/4 103/223/4
f 105/225/32 109/229/33 106/226/34
f 108/228/5 102/243/5 79/281/5
f 79/281/17 80/152/17 108/228/17
f 111/234/35 107/227/35 80/152/35
f 44/75/25 106/226/25 109/229/25
f 44/85/2 98/200/2 104/230/2
f 17/23/5 16/22/5 109/232/5
f 40/69/5 42/68/5 110/233/5
f 101/279/6 82/160/6 14/20/6
f 69/125/17 121/282/17 112/235/17
f 95/188/3 123/283/3 113/236/3
f 28/40/5 130/284/5 114/237/5
f 46/80/36 105/225/36 103/223/36
f 103/223/37 98/222/37 45/238/37
f 115/239/1 108/228/38 107/227/1
f 111/234/25 110/241/25 115/239/25
f 102/217/2 108/285/2 115/240/2
f 78/147/25 115/239/25 110/241/25
f 107/242/13 111/286/13 40/65/13
f 41/74/25 107/227/25 108/228/25
f 118/246/4 119/249/4 116/244/4
f 117/245/6 14/20/6 118/246/4
f 14/247/17 118/287/17 81/151/17
f 101/213/3 117/288/3 116/248/3
f 73/134/25 116/244/25 119/249/25
f 83/154/5 119/289/5 118/246/5
f 112/235/5 122/252/5 120/250/5
f 120/250/2 93/180/2 121/251/2
f 58/104/25 120/250/25 122/252/25
f 65/117/27 93/290/3 120/253/28
f 71/126/5 122/291/5 112/235/5
f 69/133/25 121/251/25 93/180/25
f 125/256/2 126/258/4 113/257/4
f 125/256/2 113/257/4 123/254/2
f 56/100/25 23/33/25 113/257/25
f 54/95/17 124/292/17 125/256/17
f 54/103/5 124/255/5 123/254/5
f 55/97/5 56/96/5 126/260/5
f 128/262/3 129/263/3 127/261/3
f 114/237/6 130/266/6 128/262/6
f 27/46/25 127/261/25 129/263/25
f 127/265/8 114/293/8 26/37/8
f 30/47/25 128/262/25 130/266/25
f 96/192/4 129/294/4 128/267/4
f 135/275/39 133/270/39 132/269/39
f 131/268/40 134/271/41 132/269/42
f 35/58/5 132/269/5 134/271/5
f 35/54/4 36/191/4 135/272/4
f 36/274/5 10/295/5 133/270/5
f 11/17/25 9/15/25 134/271/25
f 11/296/13 131/268/13 133/297/13
f 133/297/13 10/183/13 11/296/13
f 15/278/13 103/298/13 17/277/13
f 17/277/13 11/296/13 10/183/13
f 103/298/13 105/299/13 17/277/13
f 124/255/43 24/300/43 25/38/43
f 129/263/4 96/264/4 31/301/4
f 32/52/44 114/237/44 127/261/44
f 129/263/4 31/301/4 32/52/4
f 34/60/45 36/274/45 135/275/45
f 135/275/46 133/270/46 33/55/46
f 33/55/47 34/60/47 135/275/47
f 83/158/48 119/249/48 84/156/48
