# Blender v2.78 (sub 0) OBJ File: 'puzzleListo.blend'
# www.blender.org
mtllib puzzleTestCurvo.mtl
o Cube.001_Cube.003
v -4.999000 2.500000 -0.250000
v -4.999000 0.000000 -5.250000
v -4.999000 0.000000 -0.250000
v -4.999000 2.500000 -5.250000
v 0.000000 0.000000 -5.250000
v 0.000000 2.500000 -5.250000
v 0.000000 0.000000 -0.250000
v 0.000000 2.500000 -0.250000
v -14.999999 0.000002 -15.750000
v -14.999999 0.500002 -16.250000
v -15.000000 0.000002 -17.250000
v 21.000000 0.500000 0.750000
v 21.000000 -0.000000 1.750000
v 21.000000 0.500000 0.750000
v 15.000000 0.500002 -16.250000
v 15.000000 0.000002 -15.750000
v 15.000000 0.000002 -17.250000
v 15.000000 0.500002 -15.250000
v -14.999999 0.500002 -15.250000
v -26.750000 -0.000002 18.999996
v 31.750000 0.000002 -24.499996
v -26.750000 0.000002 -24.499996
v 11.000001 -0.000000 10.249999
v 11.000001 0.500000 10.749999
v 11.000001 -0.000002 11.749999
v -15.000000 -0.000002 11.750001
v -15.000000 0.500000 10.750001
v -15.000000 -0.000000 10.250001
v -15.000000 0.500000 9.750001
v -15.500000 -0.000000 10.749999
v -16.000000 0.500000 10.749999
v -17.000000 -0.000000 10.749999
v -17.000000 0.000002 -16.249998
v -16.000000 0.500002 -16.249998
v -15.500001 0.000002 -16.249998
v -15.000001 0.500002 -16.249998
v 15.501963 0.000000 -5.750000
v 15.001963 0.500000 -6.250000
v 15.501963 0.000000 -7.250000
v 19.999998 0.000000 -7.250000
v 19.999998 0.500000 -6.250000
v 20.499998 0.000000 -5.750000
v 19.999998 0.500000 -5.250000
v 15.500000 0.000002 -16.250000
v 16.000002 0.500002 -16.250000
v 17.000000 0.000002 -16.250000
v 17.000000 0.000000 -6.250000
v 16.000000 0.500000 -6.250000
v 15.501967 0.000000 -6.250000
v 15.001967 0.500000 -6.250000
v 10.500000 -0.000000 5.750000
v 11.000001 0.500000 5.750000
v 12.000000 -0.000000 5.750000
v 10.999999 0.500000 9.749999
v 12.000000 -0.000000 9.749999
v 10.499999 -0.000000 9.749999
v 9.999999 0.500000 9.749999
v 16.475531 -0.000000 5.250000
v 15.975531 0.500000 5.750000
v 15.975529 -0.000000 6.749999
v 10.500000 -0.000000 6.749999
v 10.000000 0.500000 5.749999
v 10.499999 -0.000000 5.249999
v 9.999999 0.500000 4.749999
v 15.975531 0.500000 4.750000
v 15.500002 -0.000000 0.249999
v 16.000002 0.500000 -0.050001
v 17.000000 -0.000000 0.250000
v 16.000000 0.500000 4.750000
v 17.000000 -0.000000 4.749999
v 15.500000 -0.000000 4.750000
v 15.000000 0.500000 4.750000
v 21.000000 -0.000000 0.250000
v 16.000000 -0.000000 1.749999
v 16.000002 0.500000 0.750000
v 16.000002 -0.000000 0.250000
v 16.000002 0.500000 -0.050000
v 20.499998 0.000000 -6.224203
v 21.000000 0.500000 -6.224203
v 21.999998 0.000000 -6.224203
v 22.000000 0.000000 -0.050000
v 21.000000 0.500000 -0.050000
v 20.500000 0.000000 -0.050000
v 20.000000 0.500000 -0.050000
v -15.000000 2.500000 -10.249998
v -15.000000 0.000002 -15.249998
v -15.000000 0.000000 -10.249998
v -15.000000 2.500002 -15.249998
v -10.000000 0.000002 -15.250000
v -10.000000 2.500002 -15.250000
v -10.000000 0.000000 -10.250000
v -10.000000 2.500000 -10.250000
v 15.975531 0.500001 5.750000
v 31.749996 -0.000002 18.999998
v 11.000001 0.500000 9.749999
v -15.000000 0.500000 10.749999
v 15.001963 0.500000 -5.250000
v 15.000000 0.500002 -16.250000
v 10.000000 0.500000 5.750000
v 15.000002 0.500000 -0.050001
v 21.000000 0.500000 -0.050000
v 19.999998 0.500000 -6.224203
v 16.000000 0.499999 -16.250004
v 16.000002 0.499999 -16.250004
v 16.000000 -0.000001 -17.250004
v 16.000002 -0.000001 -16.250004
v 20.999998 0.500000 -6.250002
v 21.000000 0.500000 -6.224205
v 16.000000 -0.000001 -15.250004
v 20.999998 0.000000 -5.250003
v 21.000000 0.000000 -7.250002
v 17.000000 0.000001 5.749999
v 11.000001 0.000001 10.749999
v -16.000000 -0.000002 11.750001
v 21.000000 0.000000 -6.224205
v 21.000000 -0.000000 0.750000
v 21.000000 0.500000 0.750000
v 22.000000 -0.000000 0.750000
v 20.000000 -0.000000 0.750000
v 15.975531 0.000001 5.750000
v 16.000000 0.500001 5.750000
v 15.000000 0.000001 5.750000
v 11.000001 0.500001 10.749999
v 10.999999 0.500001 10.749999
v 12.000000 0.000001 10.749999
v 9.999998 0.000001 10.749999
v -16.000000 0.500000 10.750001
v -16.000000 -0.000000 10.749999
v -16.000000 0.500000 10.749999
v -16.000000 -0.000000 9.750001
v -16.000000 -0.000002 -17.250004
v -16.000000 -0.000002 -16.250002
v -15.999999 0.499998 -16.250004
v -15.999999 -0.000002 -15.250004
v -16.000000 0.499998 -16.250002
vt 0.8275 0.7521
vt 0.7396 0.7094
vt 0.8818 0.7094
vt 0.7814 0.7600
vt 0.7302 0.8492
vt 0.7316 0.7617
vt 0.7846 0.8065
vt 0.8725 0.8492
vt 0.8307 0.7986
vt 0.1191 0.7504
vt 0.1130 0.7269
vt 0.0748 0.7243
vt 0.2933 0.8899
vt 0.2792 0.9010
vt 0.2931 0.8896
vt 0.4614 0.7325
vt 0.4564 0.7574
vt 0.5013 0.7275
vt 0.4439 0.7491
vt 0.1310 0.7389
vt 0.0003 0.0003
vt 0.9532 0.7089
vt 0.0003 0.7089
vt 0.4724 0.8516
vt 0.4618 0.8399
vt 0.4741 0.8183
vt 0.0870 0.8086
vt 0.4625 0.8238
vt 0.0863 0.8248
vt 0.0901 0.8478
vt 0.0499 0.8189
vt 0.1023 0.8391
vt 0.4595 0.8779
vt 0.3990 0.8784
vt 0.3909 0.8865
vt 0.3746 0.8784
vt 0.9815 0.4401
vt 0.9997 0.0003
vt 0.9997 0.4401
vt 0.3595 0.8784
vt 0.3632 0.8893
vt 0.3413 0.8784
vt 0.9652 0.0003
vt 0.9537 0.4401
vt 0.9537 0.0003
vt 0.9815 0.0003
vt 0.5814 0.8529
vt 0.5838 0.8694
vt 0.5781 0.8774
vt 0.6183 0.8931
vt 0.6222 0.8815
vt 0.6275 0.8682
vt 0.6370 0.8925
vt 0.6176 0.8710
vt 0.4158 0.8865
vt 0.4240 0.8784
vt 0.4403 0.8865
vt 0.9005 0.7094
vt 0.8897 0.8728
vt 0.8824 0.7102
vt 0.9082 0.8591
vt 0.9283 0.8647
vt 0.9206 0.8496
vt 0.9400 0.7103
vt 0.5749 0.8071
vt 0.5575 0.8094
vt 0.5314 0.7971
vt 0.5592 0.9019
vt 0.5301 0.9015
vt 0.5728 0.9043
vt 0.5683 0.9102
vt 0.5702 0.8987
vt 0.8681 0.8579
vt 0.8796 0.8660
vt 0.8733 0.8831
vt 0.0966 0.8980
vt 0.0007 0.8784
vt 0.0966 0.8784
vt 0.0086 0.8971
vt 0.0003 0.9141
vt 0.0121 0.9045
vt 0.1056 0.9397
vt 0.0959 0.9173
vt 0.5295 0.7980
vt 0.5003 0.8071
vt 0.4819 0.7971
vt 0.4985 0.8689
vt 0.4807 0.8686
vt 0.5182 0.8657
vt 0.4935 0.9001
vt 0.5109 0.8552
vt 0.7116 0.8732
vt 0.7197 0.8814
vt 0.7116 0.8976
vt 0.1913 0.8974
vt 0.1061 0.8784
vt 0.1913 0.8784
vt 0.1165 0.8972
vt 0.1093 0.9127
vt 0.1207 0.9070
vt 0.1882 0.9276
vt 0.4489 0.8865
vt 0.4571 0.8784
vt 0.4734 0.8865
vt 0.8546 0.8660
vt 0.7567 0.8965
vt 0.8462 0.8497
vt 0.7651 0.9127
vt 0.7617 0.9237
vt 0.7503 0.9020
vt 0.7727 0.9272
vt 0.8676 0.8907
vt 0.7781 0.9375
vt 0.6325 0.8065
vt 0.7204 0.8492
vt 0.5781 0.8492
vt 0.6785 0.7986
vt 0.7297 0.7094
vt 0.6754 0.7521
vt 0.5874 0.7094
vt 0.6293 0.7600
vt 0.7481 0.8074
vt 0.8943 0.8892
vt 0.8909 0.8733
vt 0.9056 0.9034
vt 0.9532 0.0003
vt 0.4607 0.8622
vt 0.4072 0.8865
vt 0.3741 0.8857
vt 0.9652 0.4401
vt 0.5889 0.8639
vt 0.4077 0.8784
vt 0.9238 0.7094
vt 0.5708 0.8132
vt 0.8796 0.8497
vt 0.5136 0.8167
vt 0.7197 0.8683
vt 0.1901 0.9151
vt 0.4408 0.8784
vt 0.8622 0.8804
vt 0.4803 0.7966
vt 0.4827 0.7859
vt 0.4837 0.7806
vt 0.5173 0.7815
vt 0.4860 0.7700
vt 0.2193 0.8784
vt 0.2059 0.8902
vt 0.2056 0.8899
vt 0.4719 0.7784
vt 0.4744 0.7649
vt 0.6306 0.8664
vt 0.6622 0.8498
vt 0.4751 0.9257
vt 0.5164 0.9165
vt 0.5731 0.9118
vt 0.5750 0.9095
vt 0.5749 0.9089
vt 0.0307 0.8457
vt 0.3243 0.8784
vt 0.3408 0.8853
vt 0.3242 0.8787
vt 0.6345 0.8498
vt 0.6372 0.8623
vt 0.6139 0.8508
vt 0.6246 0.8613
vt 0.7100 0.8779
vt 0.6848 0.9207
vt 0.7111 0.8786
vt 0.6859 0.9213
vt 0.7456 0.9219
vt 0.7372 0.9213
vt 0.7387 0.9081
vt 0.7302 0.8918
vt 0.7418 0.8858
vt 0.7339 0.9308
vt 0.7407 0.9296
vt 0.7539 0.9371
vt 0.7411 0.9375
vt 0.5199 0.9036
vt 0.5238 0.9094
vt 0.5284 0.9051
vt 0.5209 0.8986
vt 0.5295 0.9094
vt 0.4975 0.9427
vt 0.4747 0.9262
vt 0.5740 0.9103
vt 0.5737 0.9106
vt 0.5716 0.9099
vt 0.5744 0.9129
vt 0.5721 0.9124
vt 0.0574 0.8639
vt 0.0633 0.8494
vt 0.0199 0.7974
vt 0.0003 0.8239
vt 0.0195 0.7971
vt 0.0007 0.8243
vt 0.0740 0.8607
vt 0.0760 0.8500
vt 0.0757 0.8779
vt 0.0614 0.7781
vt 0.0917 0.7648
vt 0.0923 0.7807
vt 0.1064 0.7692
vt 0.1034 0.7586
vt 0.0925 0.7807
vt 0.0135 0.7101
vt 0.0013 0.7632
vt 0.0003 0.7634
vt 0.4616 0.7195
vt 0.7119 0.8678
vt 0.7116 0.8498
vt 0.7295 0.8639
vt 0.2318 0.8926
vt 0.2205 0.8790
vt 0.2321 0.8924
vt 0.2612 0.8790
vt 0.2570 0.8962
vt 0.2434 0.8784
vt 0.7370 0.9213
vt 0.2791 0.8784
vt 0.3070 0.8784
vt 0.9013 0.8857
vt 0.8824 0.9034
vt 0.8936 0.8895
vt 0.5626 0.7094
vt 0.5616 0.7096
vt 0.5776 0.7636
vt 0.1918 0.9013
vt 0.2054 0.8897
vt 0.2200 0.9013
vt 0.7417 0.8856
vt 0.4980 0.9421
vt 0.3210 0.8963
vt 0.3075 0.8784
vt 0.6340 0.8499
vt 0.5240 0.9093
vt 0.0576 0.8640
vt 0.1178 0.7830
vt 0.0147 0.7094
vt 0.1133 0.7139
vt 0.7116 0.8678
vt 0.2429 0.9064
vt 0.2316 0.8928
vt 0.2429 0.8784
vt 0.2611 0.8784
vt 0.2786 0.8847
vt 0.2610 0.8787
vt 0.3889 0.8985
vt 0.3746 0.8928
vt 0.3889 0.8870
vn -1.0000 0.0000 0.0000
vn 0.0000 0.0000 -1.0000
vn 1.0000 0.0000 0.0000
vn 0.0000 -0.0000 1.0000
vn 0.0000 1.0000 0.0000
vn 0.0000 0.0000 0.0000
vn 0.0000 -0.7071 0.7071
vn 0.0000 0.8944 0.4472
vn -0.0000 -0.7071 -0.7071
vn -0.4472 0.8944 0.0000
vn 0.7071 -0.7071 -0.0000
vn -0.7071 -0.7071 -0.0000
vn 0.0000 0.8944 -0.4472
vn 0.7791 0.6012 -0.1779
vn 0.7528 0.6501 -0.1027
vn 0.8018 0.5345 -0.2673
vn 0.4472 0.8944 0.0000
vn -0.7071 -0.7071 0.0001
vn 0.7528 0.6501 0.1027
vn 0.7791 0.6012 0.1779
vn 0.8018 0.5345 0.2673
vn 0.0000 -0.5145 -0.8575
vn 0.7071 0.7071 0.0000
vn -0.0000 -0.7924 0.6101
vn -0.0000 -1.0000 -0.0000
vn 0.3276 0.6552 -0.6807
vn 0.7653 0.5757 0.2879
vn 0.8760 0.4314 0.2157
vn 0.4082 0.8165 0.4082
vn -0.4082 0.8165 -0.4082
vn 0.4001 0.8197 0.4099
vn 0.4170 0.8130 -0.4065
vn 0.4082 0.8165 -0.4082
vn 0.0000 0.7880 -0.6156
vn -1.0000 0.0000 0.0001
vn 0.2831 0.9591 0.0000
vn -0.3873 -0.5003 0.7744
vn 0.9045 -0.3015 0.3015
vn -0.9701 0.0000 -0.2425
vn -0.9056 -0.0000 0.4241
vn -0.9403 0.0000 -0.3404
vn -0.8599 -0.2705 0.4328
vn -0.4082 -0.8165 -0.4082
vn -0.4082 0.8165 0.4082
vn -0.0000 0.6491 -0.7607
vn 0.0000 0.9701 -0.2425
vn -0.6429 0.4805 -0.5965
vn -0.6040 0.5126 -0.6103
vn -0.6043 0.5124 -0.6102
vn -0.6468 -0.6468 -0.4042
usemtl Material.001
s 1
f 1/1/1 2/2/1 3/3/1
f 4/4/2 5/5/2 2/6/2
f 6/7/3 7/8/3 5/5/3
f 8/9/4 3/3/4 7/8/4
f 4/4/5 8/9/5 6/7/5
f 9/10/1 10/11/1 11/12/1
f 12/13/6 13/14/4 14/15/6
f 15/16/3 16/17/3 17/18/3
f 18/19/7 9/10/7 16/17/7
f 15/16/5 19/20/5 18/19/5
f 20/21/5 21/22/5 22/23/5
f 23/24/3 24/25/3 25/26/3
f 24/25/8 26/27/8 25/28/8
f 27/29/1 28/30/1 26/31/1
f 29/32/9 23/33/9 28/30/9
f 24/25/5 29/32/5 27/29/5
f 30/34/4 31/35/4 32/36/4
f 31/37/10 33/38/10 32/39/10
f 34/40/2 35/41/2 33/42/2
f 36/43/11 30/44/11 35/45/11
f 31/37/5 36/43/5 34/46/5
f 37/47/12 38/48/12 39/49/12
f 38/48/13 40/50/13 39/49/13
f 41/51/14 42/52/15 40/53/16
f 43/54/7 37/47/7 42/52/7
f 38/48/5 43/54/5 41/51/5
f 44/55/2 45/56/2 46/57/2
f 45/58/17 47/59/17 46/60/17
f 48/61/4 49/62/4 47/59/4
f 50/63/18 44/64/18 49/62/18
f 45/58/5 50/63/5 48/61/5
f 51/65/2 52/66/2 53/67/2
f 53/67/17 54/68/17 55/69/17
f 54/68/4 56/70/4 55/71/4
f 57/72/12 51/65/12 56/70/12
f 52/66/5 57/72/5 54/68/5
f 58/73/19 59/74/20 60/75/21
f 59/76/8 61/77/8 60/78/8
f 62/79/12 63/80/12 61/77/12
f 64/81/9 58/82/9 63/80/9
f 62/79/5 65/83/5 64/81/5
f 66/84/22 67/85/22 68/86/22
f 68/86/17 69/87/17 70/88/17
f 69/87/4 71/89/4 70/90/4
f 72/91/12 66/84/12 71/89/12
f 67/85/5 72/91/5 69/87/5
f 73/92/3 12/93/3 13/94/3
f 12/95/8 74/96/8 13/97/8
f 75/98/1 76/99/1 74/96/1
f 77/100/22 73/101/22 76/99/22
f 12/95/5 77/100/5 75/98/5
f 78/102/2 79/103/2 80/104/2
f 79/105/17 81/106/17 80/107/17
f 82/108/4 83/109/4 81/110/4
f 84/111/12 78/112/12 83/113/12
f 79/105/5 84/111/5 82/108/5
f 85/114/1 86/115/1 87/116/1
f 88/117/2 89/118/2 86/115/2
f 90/119/3 91/120/3 89/118/3
f 92/121/4 87/116/4 91/120/4
f 88/117/5 92/121/5 90/119/5
f 1/1/1 4/4/1 2/2/1
f 4/4/2 6/7/2 5/122/2
f 6/7/3 8/9/3 7/8/3
f 8/9/4 1/1/4 3/3/4
f 4/4/5 1/1/5 8/9/5
f 9/10/1 19/20/1 10/11/1
f 93/123/1 65/124/1 60/125/1
f 15/16/3 18/19/3 16/17/3
f 18/19/7 19/20/7 9/10/7
f 15/16/5 10/11/5 19/20/5
f 20/21/5 94/126/5 21/22/5
f 23/24/3 95/127/3 24/25/3
f 24/25/8 27/29/8 26/27/8
f 27/29/1 29/32/1 28/30/1
f 29/32/9 95/127/9 23/33/9
f 24/25/5 95/127/5 29/32/5
f 30/34/4 96/128/4 31/35/4
f 31/37/10 34/46/10 33/38/10
f 34/40/2 36/129/2 35/41/2
f 36/43/11 96/130/11 30/44/11
f 31/37/5 96/130/5 36/43/5
f 37/47/12 97/131/12 38/48/12
f 38/48/13 41/51/13 40/50/13
f 41/51/14 43/54/23 42/52/15
f 43/54/7 97/131/7 37/47/7
f 38/48/5 97/131/5 43/54/5
f 44/55/2 98/132/2 45/56/2
f 45/58/17 48/61/17 47/59/17
f 48/61/4 50/63/4 49/62/4
f 50/63/18 98/133/18 44/64/18
f 45/58/5 98/133/5 50/63/5
f 51/65/2 99/134/2 52/66/2
f 53/67/17 52/66/17 54/68/17
f 54/68/4 57/72/4 56/70/4
f 57/72/12 99/134/12 51/65/12
f 52/66/5 99/134/5 57/72/5
f 58/73/19 65/135/23 59/74/20
f 59/76/8 62/79/8 61/77/8
f 62/79/12 64/81/12 63/80/12
f 64/81/9 65/83/9 58/82/9
f 62/79/5 59/76/5 65/83/5
f 66/84/22 100/136/22 67/85/22
f 68/86/17 67/85/17 69/87/17
f 69/87/4 72/91/4 71/89/4
f 72/91/12 100/136/12 66/84/12
f 67/85/5 100/136/5 72/91/5
f 73/92/3 101/137/3 12/93/3
f 12/95/8 75/98/8 74/96/8
f 75/98/1 77/100/1 76/99/1
f 77/100/22 101/138/22 73/101/22
f 12/95/5 101/138/5 77/100/5
f 78/102/2 102/139/2 79/103/2
f 79/105/17 82/108/17 81/106/17
f 82/108/4 84/111/4 83/109/4
f 84/111/12 102/140/12 78/112/12
f 79/105/5 102/140/5 84/111/5
f 85/114/1 88/117/1 86/115/1
f 88/117/2 90/119/2 89/118/2
f 90/119/3 92/121/3 91/120/3
f 92/121/4 85/114/4 87/116/4
f 88/117/5 85/114/5 92/121/5
f 98/141/24 103/142/24 104/143/24
f 103/142/1 105/144/1 106/145/1
f 80/146/17 107/147/17 108/148/17
f 44/149/25 109/150/25 16/17/25
f 44/149/2 104/143/2 106/145/2
f 17/18/5 109/150/5 105/144/5
f 40/53/5 110/151/5 111/152/5
f 69/153/17 112/154/17 70/90/17
f 95/155/3 113/156/3 23/157/3
f 28/30/5 114/158/5 26/31/5
f 45/159/26 46/160/26 103/161/26
f 107/162/1 111/152/1 115/163/1
f 102/164/2 115/163/2 78/165/2
f 78/165/25 110/151/25 42/52/25
f 107/166/13 40/53/13 41/167/13
f 41/167/25 108/168/25 102/169/25
f 116/170/2 117/171/2 118/172/2
f 14/173/17 81/110/17 82/174/17
f 101/175/3 116/170/3 73/176/3
f 73/176/25 119/177/25 83/178/25
f 83/109/5 118/172/5 81/110/5
f 120/179/2 121/180/2 112/154/2
f 58/181/25 122/182/25 71/89/25
f 65/183/27 120/179/28 58/181/29
f 71/89/5 112/154/5 70/90/5
f 69/153/25 93/184/25 65/185/25
f 123/186/4 124/187/4 125/188/4
f 56/70/25 113/156/25 126/189/25
f 54/190/17 125/188/17 55/71/17
f 54/190/5 123/186/5 95/155/5
f 55/71/5 126/189/5 125/188/5
f 127/191/3 114/158/3 128/192/3
f 27/193/25 129/194/25 96/195/25
f 127/196/8 26/31/8 27/193/8
f 30/197/25 130/198/25 28/30/25
f 96/199/4 128/192/4 30/197/4
f 131/200/1 132/201/1 133/202/1
f 35/203/5 134/204/5 9/10/5
f 35/203/4 135/205/4 132/201/4
f 36/206/5 133/207/5 135/208/5
f 11/12/25 134/204/25 131/200/25
f 17/209/13 10/11/13 15/16/13
f 124/210/29 25/211/29 125/212/29
f 129/213/10 32/214/10 127/215/10
f 133/216/30 131/217/30 33/218/30
f 14/219/6 117/171/6 101/175/6
f 13/14/29 118/220/29 14/15/29
f 14/15/6 101/221/6 12/13/6
f 65/124/3 59/222/3 60/125/3
f 60/125/31 112/223/31 93/123/31
f 112/223/4 121/224/4 93/123/4
f 98/225/4 15/226/4 103/227/4
f 106/145/4 104/143/4 103/142/4
f 105/144/6 109/150/6 106/145/6
f 108/148/5 102/228/5 79/229/5
f 79/229/17 80/146/17 108/148/17
f 111/230/32 107/147/32 80/146/32
f 44/149/25 106/145/25 109/150/25
f 44/149/2 98/141/2 104/143/2
f 17/18/5 16/17/5 109/150/5
f 40/53/5 42/52/5 110/151/5
f 101/231/6 82/174/6 14/173/6
f 69/153/17 121/232/17 112/154/17
f 95/155/3 123/186/3 113/156/3
f 28/30/5 130/198/5 114/158/5
f 46/160/33 105/233/33 103/161/33
f 103/161/34 98/234/34 45/159/34
f 115/163/1 108/235/35 107/162/1
f 111/152/25 110/151/25 115/163/25
f 102/164/2 108/235/2 115/163/2
f 78/165/25 115/163/25 110/151/25
f 107/166/13 111/152/13 40/53/13
f 41/167/25 107/166/25 108/168/25
f 118/172/4 119/177/4 116/170/4
f 117/171/6 14/219/6 118/172/4
f 14/173/17 118/172/17 81/110/17
f 101/175/3 117/171/3 116/170/3
f 73/176/25 116/170/25 119/177/25
f 83/109/5 119/177/5 118/172/5
f 112/154/5 122/182/5 120/179/5
f 120/179/2 93/236/2 121/180/2
f 58/181/25 120/179/25 122/182/25
f 65/183/27 93/236/3 120/179/28
f 71/89/5 122/182/5 112/154/5
f 69/153/25 121/232/25 93/184/25
f 125/188/2 126/189/2 113/156/2
f 125/188/2 113/156/2 123/186/2
f 56/70/25 23/157/25 113/156/25
f 54/190/17 124/187/17 125/188/17
f 54/190/5 124/187/5 123/186/5
f 55/71/5 56/70/5 126/189/5
f 128/192/3 129/237/3 127/191/3
f 114/158/36 130/198/37 128/192/38
f 27/193/25 127/196/25 129/194/25
f 127/196/8 114/158/8 26/31/8
f 30/197/25 128/192/25 130/198/25
f 96/199/4 129/237/4 128/192/4
f 135/205/39 133/202/39 132/201/39
f 131/200/40 134/204/41 132/201/42
f 35/203/5 132/201/5 134/204/5
f 35/203/4 36/238/4 135/205/4
f 36/206/5 10/239/5 133/207/5
f 11/12/25 9/10/25 134/204/25
f 11/12/13 131/200/13 133/207/13
f 133/207/13 10/239/13 11/12/13
f 15/226/13 103/227/13 17/18/13
f 17/209/13 11/240/13 10/11/13
f 103/227/13 105/144/13 17/18/13
f 124/210/43 24/241/43 25/211/43
f 129/213/4 96/242/4 31/243/4
f 32/214/44 114/244/44 127/215/44
f 129/213/4 31/243/4 32/214/4
f 34/245/45 36/246/45 135/247/45
f 135/247/46 133/216/46 33/218/46
f 33/218/47 34/245/48 135/247/49
f 83/248/50 119/249/50 84/250/50
