# Blender v2.76 (sub 0) OBJ File: 'RialCasa.blend'
# www.blender.org
mtllib RialCasa.mtl
o Cube
v 3.586891 -0.428225 -5.252141
v 4.031152 -0.244074 4.439127
v -6.389727 -0.609176 5.293112
v -6.604848 -0.664019 -4.485598
v 3.586893 7.026967 -5.252139
v 4.031150 7.211117 4.439130
v -6.389727 6.846014 5.293111
v -6.833988 6.661864 -4.398156
v -1.667571 -0.525064 -4.664678
v -1.223310 -0.340914 5.026590
v -1.633241 11.098711 -4.753113
v -1.188982 11.282862 4.938155
v 4.031152 -0.244074 0.498416
v -6.389725 -0.609176 1.352401
v 4.031152 7.211117 0.498418
v -6.389727 6.846014 1.352401
v -1.188980 11.282862 0.997444
v -1.223310 -0.340914 1.085879
v -1.201532 7.033175 4.970487
v -6.833988 6.621625 -4.398156
v -1.645922 6.805092 -4.720447
v -1.659610 2.170396 -4.685185
v 3.586891 2.308202 -5.252141
v -6.833986 2.026186 -4.398156
v -0.530521 2.200053 -4.807199
v -0.502727 -0.503596 -4.794911
v -2.739489 2.140300 -4.625283
v -2.655867 -0.576381 -4.613694
v 1.724898 2.259295 -5.050927
v 1.747657 6.948981 -5.065259
v 3.586892 4.882291 -5.252140
v -1.651842 4.800661 -4.705197
v 1.737488 4.853504 -5.058856
v 0.176530 4.829167 -4.895978
v 0.160737 6.881695 -4.904016
vt 0.499973 0.013739
vt 0.756246 0.991687
vt 0.759417 0.007505
vt 0.240088 0.011601
vt 0.486760 0.997420
vt 0.237938 1.000349
vt 0.473769 0.116198
vt -0.514573 0.094227
vt 0.498822 1.115125
vt 1.473716 0.135957
vt 0.475188 0.262445
vt 1.160802 0.253109
vt 1.160935 0.246545
vt 0.025114 0.276809
vt 0.458908 0.962797
vt 0.235580 0.270092
vt -0.218814 0.284594
vt 0.665996 0.714374
vt 0.803583 0.510561
vt 0.670714 0.497681
vt 0.671969 0.935536
vt 0.798864 0.727254
vt 0.995352 0.776283
vt 0.994028 0.727254
vt 0.994930 0.685802
vt 0.998746 0.510561
vt 0.804837 0.948416
vt 1.000000 0.948416
vt 0.271848 1.202565
vt -0.811760 -0.345590
vt -0.811760 1.265140
vt 0.458935 -0.822888
vt -0.485934 0.888488
vt 0.502408 0.910459
vt 0.010781 0.088210
vt 0.948793 1.033524
vt 0.939196 0.118020
vt -0.015861 -0.603378
vt -0.398287 -0.019942
vt -0.011305 -0.032507
vt 1.463451 -0.822247
vt 1.502355 0.930218
vt -0.623227 0.098386
vt 0.026350 1.573434
vt 1.860342 0.205323
vt 0.271847 -0.356453
vt 0.180824 0.516585
vt 1.066460 0.901179
vt 0.366919 -0.045124
vt -0.717766 -0.009569
vt -0.400539 0.527815
vt 1.066460 -0.664439
vt 0.352858 -0.618751
vt -0.132792 0.522643
vt 0.179605 0.939821
vt -0.717766 0.533933
vt -0.402357 0.970266
vt -0.524838 -0.863977
vt 0.954681 1.595227
vt 0.939111 0.110004
vt -0.717766 -0.587348
vt -0.607658 1.583609
vt 1.860342 -0.366914
vt 1.860342 0.743613
vt 1.860342 1.192104
vt 0.182423 -0.038797
vt 1.066460 -0.069118
vt -0.130217 0.956029
vt -0.717767 0.986767
vt 0.097757 0.062944
vt 0.917528 0.708306
vt 0.933451 0.052512
vt 0.129283 0.703425
vt 0.366151 0.748057
vt -0.020676 0.201296
vt -0.030415 0.754421
vt 0.433604 0.929867
vt 0.043381 0.097617
vt 0.023557 0.953546
vt 1.034704 0.925909
vt 0.453427 0.073938
vt 0.956551 0.208564
vt 0.946813 0.761689
vt 0.375890 0.194932
vt 1.054528 0.069979
vn 0.051200 0.005800 0.998700
vn 0.111000 0.007200 0.993800
vn 0.055200 0.007400 0.998400
vn 0.107300 0.005600 0.994200
vn -0.061800 -0.007400 -0.998100
vn -0.100800 -0.007300 -0.994900
vn 0.062000 0.000000 0.998100
vn 0.100800 0.007300 0.994900
vn 0.061800 0.007400 0.998100
vn -0.051900 0.998700 -0.000000
vn -0.018400 0.999800 -0.000000
vn -0.021800 0.999300 -0.030300
vn -0.022500 0.999700 -0.008600
vn -0.053300 0.998200 -0.027900
vn -1.000000 -0.000000 -0.000000
vn 0.997000 0.000000 -0.077000
vn -0.101000 0.000000 -0.994900
vn 1.000000 0.000000 0.000000
vn -0.997000 0.000000 0.077000
vn 0.060900 0.005100 0.998100
vn 0.107400 0.002500 0.994200
vn 0.032300 0.005300 0.999500
vn 0.103700 0.005700 0.994600
vn 0.103700 0.007300 0.994600
vn 0.103900 0.002500 0.994600
vn -0.051500 -0.000000 -0.998700
vn 0.995600 0.086000 -0.037500
vn 0.107400 -0.000000 0.994200
vn 0.111100 0.002500 0.993800
vn -0.111000 -0.007200 -0.993800
vn 0.061700 0.007400 0.998100
vn 0.055400 -0.000000 0.998500
vn 0.103900 -0.000000 0.994600
vn 0.056100 -0.027700 0.998000
vn 0.103700 0.002500 0.994600
vn 0.107300 0.004700 0.994200
vn 0.107200 0.007200 0.994200
vn 0.100900 0.004700 0.994900
vn 0.101100 -0.000000 0.994900
vn 0.103700 0.004700 0.994600
vn 0.101000 0.002600 0.994900
vn 0.649000 -0.760800 0.000000
vn -0.615000 -0.788500 0.000000
vn -0.609100 -0.789800 0.072300
vn 0.647800 -0.761400 -0.025700
usemtl None
s off
f 9/1/1 27/2/1 28/3/1
f 26/4/2 22/5/2 9/1/2
f 22/5/3 27/2/3 9/1/3
f 25/6/4 22/5/4 26/4/4
usemtl None_madera2.jpg
f 19/7/5 7/8/5 12/9/5
f 6/10/6 19/7/6 12/9/6
f 21/11/7 8/12/7 20/13/7
f 30/14/8 11/15/8 35/16/8
f 11/15/9 8/12/9 21/11/9
f 21/11/8 35/16/8 11/15/8
f 5/17/8 11/15/8 30/14/8
usemtl None_Sin_nombre
f 10/18/10 14/19/10 3/20/10
f 2/21/11 18/22/11 10/18/11
f 18/22/12 26/23/12 9/24/12
f 14/19/13 28/25/13 4/26/13
f 18/22/10 14/19/10 10/18/10
f 13/27/11 18/22/11 2/21/11
f 26/23/12 13/27/12 1/28/12
f 13/27/12 26/23/12 18/22/12
f 28/25/14 18/22/14 9/24/14
f 18/22/14 28/25/14 14/19/14
usemtl None_texture-brick-64089-xxl.jpg
f 15/29/15 2/30/15 6/31/15
f 10/32/5 7/33/5 19/34/5
f 16/35/16 24/36/16 20/37/16
f 26/38/4 29/39/4 25/40/4
f 2/41/17 19/34/17 6/42/17
f 7/43/18 14/44/18 16/35/18
f 23/45/19 13/46/19 15/29/19
f 32/47/20 20/48/20 27/49/20
f 23/50/21 33/51/21 29/39/21
f 27/49/22 4/52/22 28/53/22
f 25/40/23 34/54/23 32/47/23
f 34/54/24 21/55/24 32/47/24
f 31/56/25 30/57/25 33/51/25
f 13/46/15 2/30/15 15/29/15
f 3/58/26 7/33/26 10/32/26
f 4/59/27 24/36/27 14/44/27
f 16/35/16 20/37/16 8/60/16
f 24/36/16 16/35/16 14/44/16
f 29/39/28 1/61/28 23/50/28
f 1/61/29 29/39/29 26/38/29
f 10/32/30 19/34/30 2/41/30
f 3/62/18 14/44/18 7/43/18
f 13/46/19 23/45/19 1/63/19
f 23/45/19 15/29/19 31/64/19
f 5/65/19 31/64/19 15/29/19
f 20/48/31 32/47/31 21/55/31
f 32/47/3 27/49/3 22/66/3
f 27/49/32 20/48/32 24/67/32
f 31/56/33 33/51/33 23/50/33
f 24/67/34 4/52/34 27/49/34
f 34/54/35 29/39/35 33/51/35
f 29/39/36 34/54/36 25/40/36
f 22/66/37 25/40/37 32/47/37
f 35/68/38 21/55/38 34/54/38
f 5/69/39 30/57/39 31/56/39
usemtl None_ventana-arco-v6-iroko.jpg
f 33/70/40 35/71/40 34/72/40
f 30/73/41 35/71/41 33/70/41
usemtl None_6.free-roof-textures.jpg
f 16/74/42 12/75/42 7/76/42
f 17/77/43 6/78/43 12/79/43
f 11/80/44 15/81/44 17/77/44
f 11/82/45 16/74/45 8/83/45
f 17/84/42 12/75/42 16/74/42
f 15/81/43 6/78/43 17/77/43
f 5/85/44 15/81/44 11/80/44
f 17/84/45 16/74/45 11/82/45
