# Blender v2.76 (sub 0) OBJ File: 'RialCasa.blend'
# www.blender.org
mtllib RialCasa.mtl
o Cube
v 4.429109 -4.190113 -6.451865
v 4.873370 -4.005962 3.239403
v -5.547508 -4.371064 4.093389
v -5.762631 -4.425907 -5.685321
v 4.429111 3.265078 -6.451863
v 4.873368 3.449228 3.239405
v -5.547509 3.084126 4.093388
v -5.991769 2.899976 -5.597879
v -0.825353 -4.286952 -5.864402
v -0.381092 -4.102802 3.826866
v -0.791022 7.336823 -5.952837
v -0.346764 7.520974 3.738431
v 4.873370 -4.005962 -0.701308
v -5.547507 -4.371064 0.152677
v 4.873370 3.449228 -0.701306
v -5.547509 3.084126 0.152677
v -0.346762 7.520974 -0.202280
v -0.381092 -4.102802 -0.113845
v -0.359314 3.271287 3.770763
v -5.991769 2.859736 -5.597879
v -0.803703 3.043204 -5.920170
v -0.817392 -1.591492 -5.884909
v 4.429110 -1.453686 -6.451864
v -5.991768 -1.735702 -5.597880
v 0.311697 -1.561835 -6.006923
v 0.339491 -4.265484 -5.994635
v -1.897271 -1.621588 -5.825007
v -1.813649 -4.338269 -5.813418
v 2.567116 -1.502594 -6.250651
v 2.589875 3.187093 -6.264983
v 4.429110 1.120403 -6.451863
v -0.809624 1.038773 -5.904921
v 2.579706 1.091616 -6.258579
v 1.018749 1.067279 -6.095702
v 1.002956 3.119807 -6.103740
vt 0.798864 0.727254
vt 0.665996 0.714374
vt 0.670714 0.497681
vt 0.803583 0.510561
vt 0.804837 0.948416
vt 0.671969 0.935536
vt 1.000000 0.948416
vt 0.994028 0.727254
vt 0.995352 0.776283
vt 0.998746 0.510561
vt 0.994930 0.685802
vt 0.375890 0.194932
vt 0.366151 0.748057
vt -0.030415 0.754421
vt -0.020676 0.201296
vt 0.453427 0.073938
vt 0.433604 0.929867
vt 0.023557 0.953546
vt 0.043381 0.097617
vt 1.054528 0.069979
vt 1.034704 0.925909
vt 0.956551 0.208564
vt 0.946813 0.761689
vt 0.486760 0.997420
vt 0.499973 0.013739
vt 0.759417 0.007505
vt 0.756246 0.991687
vt 0.237938 1.000349
vt 0.240088 0.011601
vt 0.129283 0.703425
vt 0.097757 0.062944
vt 0.933451 0.052512
vt 0.917528 0.708306
vt 0.473769 0.116198
vt 0.498822 1.115125
vt -0.514573 0.094227
vt 1.473716 0.135957
vt 0.458908 0.962797
vt 0.475188 0.262445
vt 1.160935 0.246545
vt 1.160802 0.253109
vt -0.218814 0.284594
vt 0.025114 0.276809
vt 0.235580 0.270092
vt 0.271847 -0.356453
vt 0.271848 1.202565
vt -0.811760 1.265140
vt -0.811760 -0.345590
vt 0.458935 -0.822888
vt 0.502408 0.910459
vt -0.485934 0.888488
vt -0.524838 -0.863977
vt 0.026350 1.573434
vt 0.010781 0.088210
vt 0.939111 0.110004
vt 0.939196 0.118020
vt 0.948793 1.033524
vt 0.954681 1.595227
vt -0.717766 -0.009569
vt -0.717766 -0.587348
vt -0.015861 -0.603378
vt -0.011305 -0.032507
vt -0.398287 -0.019942
vt 1.463451 -0.822247
vt 1.502355 0.930218
vt -0.607658 1.583609
vt -0.623227 0.098386
vt 1.860342 -0.366914
vt 1.860342 0.205323
vt 1.860342 0.743613
vt 1.860342 1.192104
vt 0.179605 0.939821
vt 0.180824 0.516585
vt 0.182423 -0.038797
vt 0.366919 -0.045124
vt 1.066460 -0.069118
vt 1.066460 0.901179
vt -0.717766 0.533933
vt -0.400539 0.527815
vt 0.352858 -0.618751
vt 1.066460 -0.664439
vt -0.132792 0.522643
vt -0.130217 0.956029
vt -0.717767 0.986767
vt -0.402357 0.970266
vn 0.051900 -0.998700 0.000000
vn 0.018400 -0.999800 -0.000000
vn 0.021800 -0.999300 0.030300
vn 0.041200 -0.998900 0.020300
vn -0.649000 0.760800 -0.000000
vn 0.615000 0.788500 0.000000
vn 0.609100 0.789800 -0.072300
vn -0.647800 0.761400 0.025700
vn -0.053300 -0.006700 -0.998600
vn -0.109200 -0.006400 -0.994000
vn -0.102300 -0.003600 -0.994700
vn 0.061800 0.007400 0.998100
vn 0.100800 0.007300 0.994900
vn -0.061800 -0.007300 -0.998100
vn -0.100800 -0.007300 -0.994900
vn 1.000000 0.000000 0.000000
vn 0.056600 0.003700 0.998400
vn -0.997400 -0.015900 0.069800
vn -0.109200 -0.002800 -0.994000
vn 0.106000 0.003600 0.994400
vn -1.000000 -0.000000 -0.000000
vn 0.997000 -0.000000 -0.077000
vn -0.058600 -0.003700 -0.998300
vn -0.105700 -0.001300 -0.994400
vn -0.044400 0.011400 -0.998900
vn -0.105500 -0.004900 -0.994400
vn -0.102300 -0.006000 -0.994700
vn -0.102500 -0.001300 -0.994700
usemtl None
s off
f 18/1/1 10/2/1 3/3/1 14/4/1
f 13/5/2 2/6/2 10/2/2 18/1/2
f 1/7/3 13/5/3 18/1/3 9/8/3 26/9/3
f 9/8/4 18/1/4 14/4/4 4/10/4 28/11/4
usemtl None_6.free-roof-textures.jpg
f 17/12/5 16/13/5 7/14/5 12/15/5
f 15/16/6 17/17/6 12/18/6 6/19/6
f 5/20/7 11/21/7 17/17/7 15/16/7
f 11/22/8 8/23/8 16/13/8 17/12/8
usemtl None_door.jpg
f 22/24/9 9/25/9 28/26/9 27/27/9
f 25/28/10 26/29/10 9/25/10 22/24/10
usemtl None_ventana-arco-v6-iroko.jpg
f 30/30/11 33/31/11 34/32/11 35/33/11
usemtl None_madera2.jpg
f 19/34/12 12/35/12 7/36/12
f 6/37/13 12/35/13 19/34/13
f 11/38/14 21/39/14 20/40/14 8/41/14
f 11/38/15 5/42/15 30/43/15 35/44/15 21/39/15
usemtl None_texture-brick-64089-xxl.jpg
f 13/45/16 15/46/16 6/47/16 2/48/16
f 10/49/17 19/50/17 7/51/17 3/52/17
f 14/53/18 16/54/18 8/55/18 20/56/18 24/57/18 4/58/18
f 23/59/19 1/60/19 26/61/19 25/62/19 29/63/19
f 2/64/20 6/65/20 19/50/20 10/49/20
f 3/66/21 7/67/21 16/54/21 14/53/21
f 1/68/22 23/69/22 31/70/22 5/71/22 15/46/22 13/45/22
f 21/72/23 32/73/23 22/74/23 27/75/23 24/76/23 20/77/23
f 31/78/24 23/59/24 29/63/24 33/79/24
f 27/75/25 28/80/25 4/81/25 24/76/25
f 33/79/26 29/63/26 25/62/26 22/74/26 32/73/26 34/82/26
f 35/83/27 34/82/27 32/73/27 21/72/27
f 5/84/28 31/78/28 33/79/28 30/85/28
