# Blender v2.78 (sub 0) OBJ File: 'sala.blend'
# www.blender.org
mtllib sala.mtl
o Cube
v 40.000000 20.000000 30.000000
v 40.000000 0.000000 30.000000
v 40.000000 20.000000 -30.000000
v 40.000000 0.000000 -30.000000
v -25.000000 0.000000 30.000000
v -25.000000 20.000000 30.000000
v -25.000000 0.000000 -30.000000
v -25.000000 20.000000 -30.000000
v 125.000000 0.000000 30.000000
v 125.000000 20.000000 30.000000
v 125.000000 0.000000 -30.000000
v 125.000000 20.000000 -30.000000
v 41.000000 20.000000 30.000000
v 41.000000 0.000000 30.000000
v 41.000000 20.000000 -30.000000
v 41.000000 0.000000 -30.000000
v 41.000000 20.000000 -11.328814
v 41.000000 10.000000 30.000000
v 41.000000 0.000000 -11.112332
v 41.000000 10.000000 -30.000000
v 41.000000 10.000000 -11.112332
v 41.000000 0.000000 -19.430243
v 41.000000 5.000000 -30.000000
v 41.000000 10.000000 -19.430243
v 41.000000 5.000000 -11.112332
v 41.000000 5.000000 -19.430243
v 40.000000 20.000000 -11.030090
v 40.000000 10.000000 30.000000
v 40.000000 0.000000 -11.030090
v 40.000000 10.000000 -30.000000
v 40.000000 10.000000 -11.030090
v 40.000000 0.000000 -19.383722
v 40.000000 5.000000 -30.000000
v 40.000000 5.000000 -11.030090
v 40.000000 10.000000 -19.383722
v 40.000000 5.000000 -19.383722
vt 2.5039 0.5000
vt 0.5000 4.5000
vt 0.5000 0.5000
vt 2.5039 0.5000
vt 0.5000 4.5000
vt 0.5000 0.5000
vt -1.5039 0.5000
vt 0.5000 4.5000
vt 0.5000 0.5000
vt -1.5039 0.5000
vt 0.5000 4.5000
vt 0.5000 0.5000
vt 0.5000 -3.5000
vt 0.5000 -3.5000
vt -1.5039 0.5000
vt 0.5000 0.5000
vt 1.5020 -1.5000
vt 2.0029 -1.5000
vt 1.5020 0.5000
vt 0.5000 0.5000
vt 0.5000 -3.5000
vt 1.5020 -2.5000
vt 0.5000 -1.5000
vt 2.0029 -3.5000
vt 2.5039 -2.5000
vt 2.0029 -2.5000
vt 1.5020 -1.5000
vt 1.5020 -2.5000
vt 0.5000 -1.5000
vt 1.5020 0.5000
vt 0.5000 0.5000
vt 2.5039 0.5000
vt 2.0029 -1.5000
vt 2.5039 -3.5000
vt 2.0029 -2.5000
vt 2.5039 -2.5000
vt 1.5020 -3.5000
vt 2.5039 4.5000
vt 2.5039 4.5000
vt -1.5039 4.5000
vt -1.5039 4.5000
vt 2.5039 -3.5000
vt -1.5039 -3.5000
vt 2.5039 0.5000
vt 2.5039 -1.5000
vt 2.5039 -3.5000
vt 0.5000 -3.5000
vt 1.5020 -3.5000
vt 2.5039 -1.5000
vt 2.0029 -3.5000
vn 1.0000 0.0000 0.0000
vn 0.0000 0.0000 1.0000
vn -1.0000 0.0000 0.0000
vn 0.0000 0.0000 -1.0000
vn 0.0000 1.0000 0.0000
vn 0.0000 -1.0000 0.0000
vn -0.0820 0.0000 -0.9966
vn 0.0465 0.0000 0.9989
usemtl None
s off
f 7/1/1 6/2/1 5/3/1
f 11/4/2 8/5/2 7/6/2
f 9/7/3 12/8/3 11/9/3
f 5/10/4 10/11/4 9/12/4
f 5/13/5 11/4/5 7/6/5
f 10/14/6 8/15/6 12/16/6
f 21/17/1 24/18/1 17/19/1
f 13/20/1 21/17/1 17/19/1
f 14/21/1 25/22/1 18/23/1
f 22/24/1 23/25/1 26/26/1
f 31/27/3 34/28/3 28/29/3
f 27/30/3 28/29/3 1/31/3
f 3/32/3 35/33/3 27/30/3
f 4/34/3 36/35/3 33/36/3
f 19/37/7 34/28/7 25/22/7
f 21/17/6 35/33/6 24/18/6
f 24/18/8 36/35/8 26/26/8
f 7/1/1 8/38/1 6/2/1
f 11/4/2 12/39/2 8/5/2
f 9/7/3 10/40/3 12/8/3
f 5/10/4 6/41/4 10/11/4
f 5/13/5 9/42/5 11/4/5
f 10/14/6 6/43/6 8/15/6
f 15/44/1 17/19/1 24/18/1
f 24/18/1 20/45/1 15/44/1
f 13/20/1 18/23/1 21/17/1
f 21/17/1 18/23/1 25/22/1
f 14/21/1 19/37/1 25/22/1
f 24/18/1 26/26/1 23/25/1
f 22/24/1 16/46/1 23/25/1
f 23/25/1 20/45/1 24/18/1
f 2/47/3 28/29/3 34/28/3
f 34/28/3 29/48/3 2/47/3
f 27/30/3 31/27/3 28/29/3
f 31/27/3 27/30/3 35/33/3
f 3/32/3 30/49/3 35/33/3
f 30/49/3 33/36/3 36/35/3
f 4/34/3 32/50/3 36/35/3
f 36/35/3 35/33/3 30/49/3
f 21/17/7 25/22/7 34/28/7
f 19/37/7 29/48/7 34/28/7
f 34/28/7 31/27/7 21/17/7
f 21/17/6 31/27/6 35/33/6
f 22/24/8 26/26/8 36/35/8
f 24/18/8 35/33/8 36/35/8
f 36/35/8 32/50/8 22/24/8
